# xmcd CD database file
#
# Track frame offsets:
#	150
#	7055
#	12364
#	20190
#	28917
#	42064
#	50267
#	55546
#	60796
#	67109
#	74150
#	82636
#	95908
#	104069
#	111386
#	120014
#	123837
#	129323
#	136214
#	147195
#	163102
#	175333
#
# Disc length: 2402 seconds
#
# Revision: 2
# Processed by: cddbd v1.5.1PL2 Copyright (c) Steve Scherf et al.
# Submitted via: CDex 1.51
#
DISCID=31096016
DTITLE=Coleccion Millenium - Coleccion Millenium 6
DYEAR=2004
DGENRE=New Age
TTITLE0=Esperanza
TTITLE1=La belleza
TTITLE2=Desde una estrella cercana
TTITLE3=Hacer un alto en el camino
TTITLE4=¿Que le enseñarías a tus hijos....?
TTITLE5=La revolución de los individuos
TTITLE6=Decir lo que sentimos
TTITLE7=Si todos dejáramos de quejarnos
TTITLE8=Cita de Schopenhauer
TTITLE9=Aún te necesito
TTITLE10=Yo siempre sere tuyo
TTITLE11=Cuando decidimos estar juntos
TTITLE12=Ese inquilino que es un intruso
TTITLE13=Preferimos que la escuches y la sientas
TTITLE14=Mis contradicciones, tus contradicciones
TTITLE15=El desfile de los triunfadores
TTITLE16=Nunca te pesará
TTITLE17=Para que tú estés ahí
TTITLE18=Padre nuestro dicho por Dios
TTITLE19=Mirad los gansos
TTITLE20=Milenium es agradecida
TTITLE21=Que el camino salga a tu encuentro
EXTD=YEAR: 2004
EXTT0=
EXTT1=
EXTT2=
EXTT3=
EXTT4=
EXTT5=
EXTT6=
EXTT7=
EXTT8=
EXTT9=
EXTT10=
EXTT11=
EXTT12=
EXTT13=
EXTT14=
EXTT15=
EXTT16=
EXTT17=
EXTT18=
EXTT19=
EXTT20=
EXTT21=
PLAYORDER=
